<svg version="1.2" baseProfile="tiny-ps" xmlns="http://www.w3.org/2000/svg" viewBox="0 0 609 170" width="300" height="84">
	<title>Lionsbot_FINAL LOGO-ai</title>
	<style>
		tspan { white-space:pre }
		.shp0 { fill: #2c2e35 } 
		.shp1 { fill: none;stroke: #45cff1 } 
		.shp2 { fill: none;stroke: #2c2e35 } 
		.shp3 { fill: #45cff1 } 
		.shp4 { fill: #47cff2 } 
		.txt5 { font-size: 17px;fill: #2c2e35;font-weight: 300;font-family: "Coco Sharp" } 
		.txt6 { font-size: 12px;fill: #2c2e35;font-weight: 300;font-family: "Coco Sharp" } 
		.shp7 { fill: #ffffff } 
	</style>
	<g id="Layer 1">
		<g id="Logo d">
			<g id="&lt;Group&gt;">
				<path id="&lt;Compound Path&gt;" class="shp0" d="M2906.73 -699.95L2878.29 -699.95C2870.3 -699.95 2866.05 -704.27 2866.05 -712.26L2866.05 -750.71L2881.89 -750.71L2881.89 -714.92C2881.89 -713.05 2882.76 -712.19 2884.63 -712.19L2901.19 -712.19C2903.85 -712.19 2905.15 -711.11 2905.51 -708.59L2906.73 -699.95Z" />
				<path id="&lt;Compound Path&gt;" class="shp0" d="M2926.31 -699.95L2910.47 -699.95L2910.47 -750.71L2926.31 -750.71L2926.31 -699.95Z" />
				<path id="&lt;Compound Path&gt;" fill-rule="evenodd" class="shp0" d="M2955.55 -699.23C2939.49 -699.23 2932.07 -705.71 2932.07 -719.68L2932.07 -730.98C2932.07 -744.95 2939.49 -751.43 2955.55 -751.43L2964.83 -751.43C2980.89 -751.43 2988.31 -744.95 2988.31 -730.98L2988.31 -719.68C2988.31 -705.71 2980.89 -699.23 2964.83 -699.23L2955.55 -699.23ZM2963.75 -711.61C2970.16 -711.61 2972.47 -713.7 2972.47 -719.46L2972.47 -731.2C2972.47 -736.96 2970.16 -739.05 2963.75 -739.05L2956.63 -739.05C2950.22 -739.05 2947.91 -736.96 2947.91 -731.2L2947.91 -719.46C2947.91 -713.7 2950.22 -711.61 2956.63 -711.61L2963.75 -711.61Z" />
				<path id="&lt;Compound Path&gt;" class="shp0" d="M2994.06 -699.95L2994.06 -750.71L3008.39 -750.71C3014.01 -750.71 3017.18 -749.63 3018.98 -745.38L3031.29 -715.86C3031.58 -715.21 3031.79 -715.07 3032.44 -715.07L3032.8 -715.07L3031 -730.12L3031 -750.71L3046.56 -750.71L3046.56 -699.95L3032.23 -699.95C3026.61 -699.95 3023.44 -701.03 3021.64 -705.27L3009.33 -734.8C3009.04 -735.45 3008.82 -735.59 3008.18 -735.59L3007.82 -735.59L3009.62 -720.54L3009.62 -699.95L2994.06 -699.95Z" />
				<path id="&lt;Compound Path&gt;" class="shp0" d="M3070.96 -738.47C3069.81 -738.47 3069.16 -737.82 3069.16 -736.67L3069.16 -736.16C3069.16 -735.16 3069.66 -734.65 3070.96 -734.37L3088.39 -730.62C3099.11 -728.32 3102.64 -724.86 3102.64 -716.58L3102.64 -713.27C3102.64 -704.84 3096.38 -699.95 3085.65 -699.95L3051.95 -699.95L3053.18 -708.59C3053.54 -711.11 3054.83 -712.19 3057.5 -712.19L3084.64 -712.19C3086.01 -712.19 3086.8 -712.83 3086.8 -714.2L3086.8 -715.28C3086.8 -716.51 3086.23 -717.08 3084.64 -717.44L3068.3 -720.97C3057.5 -723.28 3053.32 -727.38 3053.32 -735.59L3053.32 -737.32C3053.32 -745.74 3059.58 -750.71 3070.31 -750.71L3100.99 -750.71L3099.76 -742.07C3099.4 -739.55 3098.11 -738.47 3095.44 -738.47L3070.96 -738.47Z" />
				<path id="&lt;Compound Path&gt;" fill-rule="evenodd" class="shp0" d="M3140.51 -750.71C3151.17 -750.71 3157 -746.1 3157 -737.61L3157 -736.16C3157 -732.2 3154.56 -728.75 3150.67 -727.52L3150.67 -726.8C3156.21 -725.65 3159.09 -721.84 3159.09 -716.07L3159.09 -713.91C3159.09 -706.79 3154.63 -699.95 3140.8 -699.95L3108.04 -699.95L3108.04 -750.71L3140.51 -750.71ZM3123.88 -731.56L3138.71 -731.56C3140.73 -731.56 3141.88 -732.71 3141.88 -734.72L3141.88 -735.3C3141.88 -737.32 3140.73 -738.47 3138.71 -738.47L3123.88 -738.47L3123.88 -731.56ZM3139.51 -712.19C3142.24 -712.19 3143.25 -713.48 3143.25 -715.57L3143.25 -716.8C3143.25 -718.88 3142.24 -720.18 3139.51 -720.18L3123.88 -720.18L3123.88 -712.19L3139.51 -712.19Z" />
				<path id="&lt;Compound Path&gt;" fill-rule="evenodd" class="shp0" d="M3186.59 -699.23C3170.54 -699.23 3163.12 -705.71 3163.12 -719.68L3163.12 -730.98C3163.12 -744.95 3170.54 -751.43 3186.59 -751.43L3195.88 -751.43C3211.94 -751.43 3219.36 -744.95 3219.36 -730.98L3219.36 -719.68C3219.36 -705.71 3211.94 -699.23 3195.88 -699.23L3186.59 -699.23ZM3194.8 -711.61C3201.21 -711.61 3203.51 -713.7 3203.51 -719.46L3203.51 -731.2C3203.51 -736.96 3201.21 -739.05 3194.8 -739.05L3187.67 -739.05C3181.26 -739.05 3178.96 -736.96 3178.96 -731.2L3178.96 -719.46C3178.96 -713.7 3181.26 -711.61 3187.67 -711.61L3194.8 -711.61Z" />
				<path id="&lt;Compound Path&gt;" class="shp0" d="M3220.93 -750.71L3271.91 -750.71L3270.69 -742.07C3270.33 -739.55 3269.03 -738.47 3266.37 -738.47L3254.34 -738.47L3254.34 -699.95L3238.5 -699.95L3238.5 -738.47L3226.48 -738.47C3223.81 -738.47 3222.52 -739.55 3222.16 -742.07L3220.93 -750.71Z" />
			</g>
			<path id="&lt;Compound Path&gt;" fill-rule="evenodd" class="shp1" d="M3000.61 -1030.62L3018.76 -1005.39L2972.41 -925.45L2939.42 -925.64L3000.61 -1030.62ZM3194.55 -925.64L3161.47 -925.81L3115.69 -1005.14L3133.7 -1030.62L3194.55 -925.64ZM3006.72 -784.63L3025.56 -813.64L3110.1 -813.64L3128.3 -784.78L3006.72 -784.63ZM3127.39 -1037.09L3106.61 -1008.01L3027.78 -1007.92L3006.89 -1037.17L3127.39 -1037.09ZM3039.65 -947.11L3005.85 -964.42L3025.81 -999.04L3108.84 -999.04L3128.75 -964.56L3094.56 -947.14L3085.9 -907.5L3067.15 -902.1L3048.53 -907.28L3039.65 -947.11ZM3062.25 -872.91L3017.57 -842.58L2980.72 -920.83L3001.04 -956.07L3031.85 -940.53L3041.05 -899.61L3062.27 -894.03L3062.25 -872.91ZM3072 -894.03L3093.48 -899.68L3102.69 -941.53L3133.15 -956.57L3154.35 -920.13L3117.79 -842.23L3072.02 -872.91L3072 -894.03ZM3067.08 -865.22L3113.88 -834.07L3108.51 -822.54L3027.09 -822.54L3021.49 -834.02L3067.08 -865.22ZM3018.74 -818.9L2998.65 -787.46L2938.18 -916.24L2973.05 -916.24L3018.74 -818.9ZM3162.65 -916.62L3197.53 -916.62L3136.57 -787.61L3116.66 -818.91L3162.65 -916.62Z" />
		</g>
		<g id="Logo c">
			<g id="&lt;Group&gt;">
				<path id="&lt;Compound Path&gt;" class="shp0" d="M1966.28 -699.95L1937.83 -699.95C1929.84 -699.95 1925.59 -704.27 1925.59 -712.26L1925.59 -750.71L1941.44 -750.71L1941.44 -714.92C1941.44 -713.05 1942.3 -712.19 1944.17 -712.19L1960.73 -712.19C1963.4 -712.19 1964.69 -711.11 1965.05 -708.59L1966.28 -699.95Z" />
				<path id="&lt;Compound Path&gt;" class="shp0" d="M1985.86 -699.95L1970.02 -699.95L1970.02 -750.71L1985.86 -750.71L1985.86 -699.95Z" />
				<path id="&lt;Compound Path&gt;" fill-rule="evenodd" class="shp0" d="M2015.09 -699.23C1999.03 -699.23 1991.62 -705.71 1991.62 -719.68L1991.62 -730.98C1991.62 -744.95 1999.03 -751.43 2015.09 -751.43L2024.38 -751.43C2040.44 -751.43 2047.85 -744.95 2047.85 -730.98L2047.85 -719.68C2047.85 -705.71 2040.44 -699.23 2024.38 -699.23L2015.09 -699.23ZM2023.3 -711.61C2029.71 -711.61 2032.01 -713.7 2032.01 -719.46L2032.01 -731.2C2032.01 -736.96 2029.71 -739.05 2023.3 -739.05L2016.17 -739.05C2009.76 -739.05 2007.46 -736.96 2007.46 -731.2L2007.46 -719.46C2007.46 -713.7 2009.76 -711.61 2016.17 -711.61L2023.3 -711.61Z" />
				<path id="&lt;Compound Path&gt;" class="shp0" d="M2053.61 -699.95L2053.61 -750.71L2067.94 -750.71C2073.55 -750.71 2076.72 -749.63 2078.52 -745.38L2090.83 -715.86C2091.12 -715.21 2091.34 -715.07 2091.99 -715.07L2092.35 -715.07L2090.55 -730.12L2090.55 -750.71L2106.1 -750.71L2106.1 -699.95L2091.77 -699.95C2086.15 -699.95 2082.99 -701.03 2081.19 -705.27L2068.87 -734.8C2068.58 -735.45 2068.37 -735.59 2067.72 -735.59L2067.36 -735.59L2069.16 -720.54L2069.16 -699.95L2053.61 -699.95Z" />
				<path id="&lt;Compound Path&gt;" class="shp0" d="M2130.5 -738.47C2129.35 -738.47 2128.7 -737.82 2128.7 -736.67L2128.7 -736.16C2128.7 -735.16 2129.21 -734.65 2130.5 -734.37L2147.93 -730.62C2158.66 -728.32 2162.19 -724.86 2162.19 -716.58L2162.19 -713.27C2162.19 -704.84 2155.92 -699.95 2145.19 -699.95L2111.49 -699.95L2112.72 -708.59C2113.08 -711.11 2114.38 -712.19 2117.04 -712.19L2144.19 -712.19C2145.55 -712.19 2146.35 -712.83 2146.35 -714.2L2146.35 -715.28C2146.35 -716.51 2145.77 -717.08 2144.19 -717.44L2127.84 -720.97C2117.04 -723.28 2112.86 -727.38 2112.86 -735.59L2112.86 -737.32C2112.86 -745.74 2119.13 -750.71 2129.86 -750.71L2160.53 -750.71L2159.31 -742.07C2158.95 -739.55 2157.65 -738.47 2154.99 -738.47L2130.5 -738.47Z" />
				<path id="&lt;Compound Path&gt;" fill-rule="evenodd" class="shp0" d="M2200.06 -750.71C2210.72 -750.71 2216.55 -746.1 2216.55 -737.61L2216.55 -736.16C2216.55 -732.2 2214.1 -728.75 2210.21 -727.52L2210.21 -726.8C2215.76 -725.65 2218.64 -721.84 2218.64 -716.07L2218.64 -713.91C2218.64 -706.79 2214.17 -699.95 2200.35 -699.95L2167.58 -699.95L2167.58 -750.71L2200.06 -750.71ZM2183.42 -731.56L2198.26 -731.56C2200.27 -731.56 2201.43 -732.71 2201.43 -734.72L2201.43 -735.3C2201.43 -737.32 2200.27 -738.47 2198.26 -738.47L2183.42 -738.47L2183.42 -731.56ZM2199.05 -712.19C2201.79 -712.19 2202.79 -713.48 2202.79 -715.57L2202.79 -716.8C2202.79 -718.88 2201.79 -720.18 2199.05 -720.18L2183.42 -720.18L2183.42 -712.19L2199.05 -712.19Z" />
				<path id="&lt;Compound Path&gt;" fill-rule="evenodd" class="shp0" d="M2246.14 -699.23C2230.08 -699.23 2222.66 -705.71 2222.66 -719.68L2222.66 -730.98C2222.66 -744.95 2230.08 -751.43 2246.14 -751.43L2255.43 -751.43C2271.48 -751.43 2278.9 -744.95 2278.9 -730.98L2278.9 -719.68C2278.9 -705.71 2271.48 -699.23 2255.43 -699.23L2246.14 -699.23ZM2254.35 -711.61C2260.75 -711.61 2263.06 -713.7 2263.06 -719.46L2263.06 -731.2C2263.06 -736.96 2260.75 -739.05 2254.35 -739.05L2247.22 -739.05C2240.81 -739.05 2238.5 -736.96 2238.5 -731.2L2238.5 -719.46C2238.5 -713.7 2240.81 -711.61 2247.22 -711.61L2254.35 -711.61Z" />
				<path id="&lt;Compound Path&gt;" class="shp0" d="M2280.48 -750.71L2331.46 -750.71L2330.23 -742.07C2329.87 -739.55 2328.58 -738.47 2325.91 -738.47L2313.89 -738.47L2313.89 -699.95L2298.05 -699.95L2298.05 -738.47L2286.02 -738.47C2283.36 -738.47 2282.06 -739.55 2281.7 -742.07L2280.48 -750.71Z" />
			</g>
			<path id="&lt;Compound Path&gt;" fill-rule="evenodd" class="shp2" d="M2060.15 -1030.62L2078.3 -1005.39L2031.95 -925.45L1998.96 -925.64L2060.15 -1030.62ZM2254.09 -925.64L2221.02 -925.81L2175.24 -1005.14L2193.24 -1030.62L2254.09 -925.64ZM2066.26 -784.63L2085.1 -813.64L2169.65 -813.64L2187.84 -784.78L2066.26 -784.63ZM2186.93 -1037.09L2166.15 -1008.01L2087.33 -1007.92L2066.44 -1037.17L2186.93 -1037.09ZM2099.2 -947.11L2065.4 -964.42L2085.36 -999.04L2168.38 -999.04L2188.29 -964.56L2154.1 -947.14L2145.45 -907.5L2126.69 -902.1L2108.08 -907.28L2099.2 -947.11ZM2121.8 -872.91L2077.12 -842.58L2040.27 -920.83L2060.58 -956.07L2091.4 -940.53L2100.6 -899.61L2121.82 -894.03L2121.8 -872.91ZM2131.54 -894.03L2153.02 -899.68L2162.23 -941.53L2192.69 -956.57L2213.89 -920.13L2177.34 -842.23L2131.56 -872.91L2131.54 -894.03ZM2126.63 -865.22L2173.43 -834.07L2168.06 -822.54L2086.63 -822.54L2081.04 -834.02L2126.63 -865.22ZM2078.28 -818.9L2058.19 -787.46L1997.72 -916.24L2032.6 -916.24L2078.28 -818.9ZM2222.2 -916.62L2257.07 -916.62L2196.12 -787.61L2176.2 -818.91L2222.2 -916.62Z" />
		</g>
		<g id="Loog b">
			<g id="&lt;Group&gt;">
				<path id="&lt;Compound Path&gt;" class="shp0" d="M1047.62 -699.95L1019.17 -699.95C1011.18 -699.95 1006.93 -704.27 1006.93 -712.26L1006.93 -750.71L1022.77 -750.71L1022.77 -714.92C1022.77 -713.05 1023.64 -712.19 1025.51 -712.19L1042.07 -712.19C1044.74 -712.19 1046.03 -711.11 1046.39 -708.59L1047.62 -699.95Z" />
				<path id="&lt;Compound Path&gt;" class="shp0" d="M1067.2 -699.95L1051.36 -699.95L1051.36 -750.71L1067.2 -750.71L1067.2 -699.95Z" />
				<path id="&lt;Compound Path&gt;" fill-rule="evenodd" class="shp0" d="M1096.43 -699.23C1080.37 -699.23 1072.95 -705.71 1072.95 -719.68L1072.95 -730.98C1072.95 -744.95 1080.37 -751.43 1096.43 -751.43L1105.72 -751.43C1121.78 -751.43 1129.19 -744.95 1129.19 -730.98L1129.19 -719.68C1129.19 -705.71 1121.78 -699.23 1105.72 -699.23L1096.43 -699.23ZM1104.64 -711.61C1111.05 -711.61 1113.35 -713.7 1113.35 -719.46L1113.35 -731.2C1113.35 -736.96 1111.05 -739.05 1104.64 -739.05L1097.51 -739.05C1091.1 -739.05 1088.8 -736.96 1088.8 -731.2L1088.8 -719.46C1088.8 -713.7 1091.1 -711.61 1097.51 -711.61L1104.64 -711.61Z" />
				<path id="&lt;Compound Path&gt;" class="shp0" d="M1134.95 -699.95L1134.95 -750.71L1149.28 -750.71C1154.89 -750.71 1158.06 -749.63 1159.86 -745.38L1172.17 -715.86C1172.46 -715.21 1172.68 -715.07 1173.33 -715.07L1173.69 -715.07L1171.89 -730.12L1171.89 -750.71L1187.44 -750.71L1187.44 -699.95L1173.11 -699.95C1167.49 -699.95 1164.32 -701.03 1162.52 -705.27L1150.21 -734.8C1149.92 -735.45 1149.71 -735.59 1149.06 -735.59L1148.7 -735.59L1150.5 -720.54L1150.5 -699.95L1134.95 -699.95Z" />
				<path id="&lt;Compound Path&gt;" class="shp0" d="M1211.84 -738.47C1210.69 -738.47 1210.04 -737.82 1210.04 -736.67L1210.04 -736.16C1210.04 -735.16 1210.55 -734.65 1211.84 -734.37L1229.27 -730.62C1240 -728.32 1243.53 -724.86 1243.53 -716.58L1243.53 -713.27C1243.53 -704.84 1237.26 -699.95 1226.53 -699.95L1192.83 -699.95L1194.06 -708.59C1194.42 -711.11 1195.71 -712.19 1198.38 -712.19L1225.53 -712.19C1226.89 -712.19 1227.69 -712.83 1227.69 -714.2L1227.69 -715.28C1227.69 -716.51 1227.11 -717.08 1225.53 -717.44L1209.18 -720.97C1198.38 -723.28 1194.2 -727.38 1194.2 -735.59L1194.2 -737.32C1194.2 -745.74 1200.47 -750.71 1211.2 -750.71L1241.87 -750.71L1240.65 -742.07C1240.29 -739.55 1238.99 -738.47 1236.33 -738.47L1211.84 -738.47Z" />
				<path id="&lt;Compound Path&gt;" fill-rule="evenodd" class="shp0" d="M1281.4 -750.71C1292.05 -750.71 1297.89 -746.1 1297.89 -737.61L1297.89 -736.16C1297.89 -732.2 1295.44 -728.75 1291.55 -727.52L1291.55 -726.8C1297.09 -725.65 1299.97 -721.84 1299.97 -716.07L1299.97 -713.91C1299.97 -706.79 1295.51 -699.95 1281.69 -699.95L1248.92 -699.95L1248.92 -750.71L1281.4 -750.71ZM1264.76 -731.56L1279.6 -731.56C1281.61 -731.56 1282.77 -732.71 1282.77 -734.72L1282.77 -735.3C1282.77 -737.32 1281.61 -738.47 1279.6 -738.47L1264.76 -738.47L1264.76 -731.56ZM1280.39 -712.19C1283.13 -712.19 1284.13 -713.48 1284.13 -715.57L1284.13 -716.8C1284.13 -718.88 1283.13 -720.18 1280.39 -720.18L1264.76 -720.18L1264.76 -712.19L1280.39 -712.19Z" />
				<path id="&lt;Compound Path&gt;" fill-rule="evenodd" class="shp0" d="M1327.48 -699.23C1311.42 -699.23 1304 -705.71 1304 -719.68L1304 -730.98C1304 -744.95 1311.42 -751.43 1327.48 -751.43L1336.76 -751.43C1352.82 -751.43 1360.24 -744.95 1360.24 -730.98L1360.24 -719.68C1360.24 -705.71 1352.82 -699.23 1336.76 -699.23L1327.48 -699.23ZM1335.68 -711.61C1342.09 -711.61 1344.4 -713.7 1344.4 -719.46L1344.4 -731.2C1344.4 -736.96 1342.09 -739.05 1335.68 -739.05L1328.56 -739.05C1322.15 -739.05 1319.84 -736.96 1319.84 -731.2L1319.84 -719.46C1319.84 -713.7 1322.15 -711.61 1328.56 -711.61L1335.68 -711.61Z" />
				<path id="&lt;Compound Path&gt;" class="shp0" d="M1361.82 -750.71L1412.8 -750.71L1411.57 -742.07C1411.21 -739.55 1409.92 -738.47 1407.25 -738.47L1395.23 -738.47L1395.23 -699.95L1379.39 -699.95L1379.39 -738.47L1367.36 -738.47C1364.7 -738.47 1363.4 -739.55 1363.04 -742.07L1361.82 -750.71Z" />
			</g>
			<path id="&lt;Compound Path&gt;" fill-rule="evenodd" class="shp0" d="M1141.49 -1030.62L1159.64 -1005.39L1113.29 -925.45L1080.3 -925.64L1141.49 -1030.62ZM1335.43 -925.64L1302.36 -925.81L1256.58 -1005.14L1274.58 -1030.62L1335.43 -925.64ZM1147.6 -784.63L1166.44 -813.64L1250.99 -813.64L1269.18 -784.78L1147.6 -784.63ZM1268.27 -1037.09L1247.49 -1008.01L1168.66 -1007.92L1147.78 -1037.17L1268.27 -1037.09ZM1180.54 -947.11L1146.74 -964.42L1166.7 -999.04L1249.72 -999.04L1269.63 -964.56L1235.44 -947.14L1226.78 -907.5L1208.03 -902.1L1189.42 -907.28L1180.54 -947.11ZM1203.14 -872.91L1158.46 -842.58L1121.6 -920.83L1141.92 -956.07L1172.74 -940.53L1181.94 -899.61L1203.16 -894.03L1203.14 -872.91ZM1212.88 -894.03L1234.36 -899.68L1243.57 -941.53L1274.03 -956.57L1295.23 -920.13L1258.67 -842.23L1212.9 -872.91L1212.88 -894.03ZM1207.97 -865.22L1254.77 -834.07L1249.39 -822.54L1167.97 -822.54L1162.38 -834.02L1207.97 -865.22ZM1159.62 -818.9L1139.53 -787.46L1079.06 -916.24L1113.94 -916.24L1159.62 -818.9ZM1303.54 -916.62L1338.41 -916.62L1277.46 -787.61L1257.54 -818.91L1303.54 -916.62Z" />
		</g>
		<g id="&lt;Group&gt;">
			<path id="&lt;Compound Path&gt;" class="shp0" d="M215.26 -126.53L186.82 -126.53C178.83 -126.53 174.58 -130.85 174.58 -138.84L174.58 -177.29L190.42 -177.29L190.42 -141.5C190.42 -139.63 191.28 -138.77 193.15 -138.77L209.72 -138.77C212.38 -138.77 213.68 -137.69 214.04 -135.17L215.26 -126.53Z" />
			<path id="&lt;Compound Path&gt;" class="shp0" d="M234.84 -126.53L219 -126.53L219 -177.29L234.84 -177.29L234.84 -126.53Z" />
			<path id="&lt;Compound Path&gt;" fill-rule="evenodd" class="shp0" d="M264.07 -125.81C248.02 -125.81 240.6 -132.29 240.6 -146.26L240.6 -157.56C240.6 -171.53 248.02 -178.01 264.07 -178.01L273.36 -178.01C289.42 -178.01 296.84 -171.53 296.84 -157.56L296.84 -146.26C296.84 -132.29 289.42 -125.81 273.36 -125.81L264.07 -125.81ZM272.28 -138.19C278.69 -138.19 280.99 -140.28 280.99 -146.04L280.99 -157.78C280.99 -163.54 278.69 -165.63 272.28 -165.63L265.15 -165.63C258.74 -165.63 256.44 -163.54 256.44 -157.78L256.44 -146.04C256.44 -140.28 258.74 -138.19 265.15 -138.19L272.28 -138.19Z" />
			<path id="&lt;Compound Path&gt;" class="shp0" d="M302.59 -126.53L302.59 -177.29L316.92 -177.29C322.54 -177.29 325.7 -176.21 327.5 -171.96L339.82 -142.44C340.11 -141.79 340.32 -141.65 340.97 -141.65L341.33 -141.65L339.53 -156.7L339.53 -177.29L355.08 -177.29L355.08 -126.53L340.75 -126.53C335.14 -126.53 331.97 -127.61 330.17 -131.86L317.86 -161.38C317.57 -162.03 317.35 -162.17 316.7 -162.17L316.34 -162.17L318.14 -147.12L318.14 -126.53L302.59 -126.53Z" />
			<path id="&lt;Compound Path&gt;" class="shp0" d="M379.49 -165.05C378.34 -165.05 377.69 -164.4 377.69 -163.25L377.69 -162.75C377.69 -161.74 378.19 -161.23 379.49 -160.95L396.91 -157.2C407.64 -154.9 411.17 -151.44 411.17 -143.16L411.17 -139.85C411.17 -131.42 404.91 -126.53 394.18 -126.53L360.48 -126.53L361.7 -135.17C362.06 -137.69 363.36 -138.77 366.02 -138.77L393.17 -138.77C394.54 -138.77 395.33 -139.42 395.33 -140.78L395.33 -141.86C395.33 -143.09 394.75 -143.67 393.17 -144.02L376.82 -147.55C366.02 -149.86 361.85 -153.96 361.85 -162.17L361.85 -163.9C361.85 -172.32 368.11 -177.29 378.84 -177.29L409.51 -177.29L408.29 -168.65C407.93 -166.13 406.63 -165.05 403.97 -165.05L379.49 -165.05Z" />
			<path id="&lt;Compound Path&gt;" fill-rule="evenodd" class="shp0" d="M449.04 -177.29C459.7 -177.29 465.53 -172.68 465.53 -164.19L465.53 -162.75C465.53 -158.79 463.08 -155.33 459.19 -154.11L459.19 -153.39C464.74 -152.23 467.62 -148.42 467.62 -142.66L467.62 -140.5C467.62 -133.37 463.15 -126.53 449.33 -126.53L416.57 -126.53L416.57 -177.29L449.04 -177.29ZM432.41 -158.14L447.24 -158.14C449.26 -158.14 450.41 -159.29 450.41 -161.31L450.41 -161.88C450.41 -163.9 449.26 -165.05 447.24 -165.05L432.41 -165.05L432.41 -158.14ZM448.03 -138.77C450.77 -138.77 451.78 -140.06 451.78 -142.15L451.78 -143.38C451.78 -145.46 450.77 -146.76 448.03 -146.76L432.41 -146.76L432.41 -138.77L448.03 -138.77Z" />
			<path id="&lt;Compound Path&gt;" fill-rule="evenodd" class="shp0" d="M495.12 -125.81C479.06 -125.81 471.65 -132.29 471.65 -146.26L471.65 -157.56C471.65 -171.53 479.06 -178.01 495.12 -178.01L504.41 -178.01C520.47 -178.01 527.88 -171.53 527.88 -157.56L527.88 -146.26C527.88 -132.29 520.47 -125.81 504.41 -125.81L495.12 -125.81ZM503.33 -138.19C509.74 -138.19 512.04 -140.28 512.04 -146.04L512.04 -157.78C512.04 -163.54 509.74 -165.63 503.33 -165.63L496.2 -165.63C489.79 -165.63 487.49 -163.54 487.49 -157.78L487.49 -146.04C487.49 -140.28 489.79 -138.19 496.2 -138.19L503.33 -138.19Z" />
			<path id="&lt;Compound Path&gt;" class="shp0" d="M529.46 -177.29L580.44 -177.29L579.22 -168.65C578.86 -166.13 577.56 -165.05 574.9 -165.05L562.87 -165.05L562.87 -126.53L547.03 -126.53L547.03 -165.05L535.01 -165.05C532.34 -165.05 531.05 -166.13 530.69 -168.65L529.46 -177.29Z" />
		</g>
		<path id="&lt;Compound Path&gt;" fill-rule="evenodd" class="shp3" d="M43.46 -243.68L53.73 -229.41L27.52 -184.21L8.86 -184.32L43.46 -243.68ZM153.13 -184.32L134.43 -184.41L108.54 -229.27L118.72 -243.68L153.13 -184.32ZM46.92 -104.58L57.57 -120.98L105.38 -120.98L115.67 -104.66L46.92 -104.58ZM115.16 -247.34L103.4 -230.9L58.83 -230.84L47.02 -247.38L115.16 -247.34ZM65.54 -196.46L46.43 -206.25L57.72 -225.82L104.67 -225.82L115.92 -206.32L96.59 -196.47L91.7 -174.06L81.09 -171.01L70.57 -173.94L65.54 -196.46ZM78.32 -154.5L53.06 -137.35L32.22 -181.6L43.71 -201.52L61.13 -192.74L66.34 -169.6L78.33 -166.44L78.32 -154.5ZM83.83 -166.44L95.98 -169.64L101.19 -193.3L118.41 -201.81L130.4 -181.2L109.73 -137.15L83.84 -154.5L83.83 -166.44ZM81.05 -150.15L107.52 -132.54L104.48 -126.02L58.44 -126.02L55.27 -132.51L81.05 -150.15ZM53.72 -123.96L42.36 -106.18L8.16 -179L27.88 -179L53.72 -123.96ZM135.1 -179.21L154.82 -179.21L120.35 -106.26L109.09 -123.96L135.1 -179.21Z" />
		<g id="Logo a 1 ">
			<g id="&lt;Group&gt;">
				<path id="&lt;Compound Path&gt;" class="shp0" d="M138.76 -699.95L110.32 -699.95C102.33 -699.95 98.08 -704.27 98.08 -712.26L98.08 -750.71L113.92 -750.71L113.92 -714.92C113.92 -713.05 114.78 -712.19 116.66 -712.19L133.22 -712.19C135.88 -712.19 137.18 -711.11 137.54 -708.59L138.76 -699.95Z" />
				<path id="&lt;Compound Path&gt;" class="shp0" d="M158.34 -699.95L142.5 -699.95L142.5 -750.71L158.34 -750.71L158.34 -699.95Z" />
				<path id="&lt;Compound Path&gt;" fill-rule="evenodd" class="shp0" d="M187.58 -699.23C171.52 -699.23 164.1 -705.71 164.1 -719.68L164.1 -730.98C164.1 -744.95 171.52 -751.43 187.58 -751.43L196.86 -751.43C212.92 -751.43 220.34 -744.95 220.34 -730.98L220.34 -719.68C220.34 -705.71 212.92 -699.23 196.86 -699.23L187.58 -699.23ZM195.78 -711.61C202.19 -711.61 204.5 -713.7 204.5 -719.46L204.5 -731.2C204.5 -736.96 202.19 -739.05 195.78 -739.05L188.66 -739.05C182.25 -739.05 179.94 -736.96 179.94 -731.2L179.94 -719.46C179.94 -713.7 182.25 -711.61 188.66 -711.61L195.78 -711.61Z" />
				<path id="&lt;Compound Path&gt;" class="shp0" d="M226.09 -699.95L226.09 -750.71L240.42 -750.71C246.04 -750.71 249.21 -749.63 251.01 -745.38L263.32 -715.86C263.61 -715.21 263.82 -715.07 264.47 -715.07L264.83 -715.07L263.03 -730.12L263.03 -750.71L278.59 -750.71L278.59 -699.95L264.26 -699.95C258.64 -699.95 255.47 -701.03 253.67 -705.27L241.36 -734.8C241.07 -735.45 240.85 -735.59 240.21 -735.59L239.85 -735.59L241.65 -720.54L241.65 -699.95L226.09 -699.95Z" />
				<path id="&lt;Compound Path&gt;" class="shp0" d="M302.99 -738.47C301.84 -738.47 301.19 -737.82 301.19 -736.67L301.19 -736.16C301.19 -735.16 301.69 -734.65 302.99 -734.37L320.42 -730.62C331.14 -728.32 334.67 -724.86 334.67 -716.58L334.67 -713.27C334.67 -704.84 328.41 -699.95 317.68 -699.95L283.98 -699.95L285.21 -708.59C285.57 -711.11 286.86 -712.19 289.53 -712.19L316.67 -712.19C318.04 -712.19 318.83 -712.83 318.83 -714.2L318.83 -715.28C318.83 -716.51 318.26 -717.08 316.67 -717.44L300.33 -720.97C289.53 -723.28 285.35 -727.38 285.35 -735.59L285.35 -737.32C285.35 -745.74 291.61 -750.71 302.34 -750.71L333.02 -750.71L331.79 -742.07C331.43 -739.55 330.14 -738.47 327.47 -738.47L302.99 -738.47Z" />
				<path id="&lt;Compound Path&gt;" fill-rule="evenodd" class="shp0" d="M372.54 -750.71C383.2 -750.71 389.03 -746.1 389.03 -737.61L389.03 -736.16C389.03 -732.2 386.58 -728.75 382.7 -727.52L382.7 -726.8C388.24 -725.65 391.12 -721.84 391.12 -716.07L391.12 -713.91C391.12 -706.79 386.66 -699.95 372.83 -699.95L340.07 -699.95L340.07 -750.71L372.54 -750.71ZM355.91 -731.56L370.74 -731.56C372.76 -731.56 373.91 -732.71 373.91 -734.72L373.91 -735.3C373.91 -737.32 372.76 -738.47 370.74 -738.47L355.91 -738.47L355.91 -731.56ZM371.54 -712.19C374.27 -712.19 375.28 -713.48 375.28 -715.57L375.28 -716.8C375.28 -718.88 374.27 -720.18 371.54 -720.18L355.91 -720.18L355.91 -712.19L371.54 -712.19Z" />
				<path id="&lt;Compound Path&gt;" fill-rule="evenodd" class="shp0" d="M418.62 -699.23C402.57 -699.23 395.15 -705.71 395.15 -719.68L395.15 -730.98C395.15 -744.95 402.57 -751.43 418.62 -751.43L427.91 -751.43C443.97 -751.43 451.39 -744.95 451.39 -730.98L451.39 -719.68C451.39 -705.71 443.97 -699.23 427.91 -699.23L418.62 -699.23ZM426.83 -711.61C433.24 -711.61 435.54 -713.7 435.54 -719.46L435.54 -731.2C435.54 -736.96 433.24 -739.05 426.83 -739.05L419.7 -739.05C413.29 -739.05 410.99 -736.96 410.99 -731.2L410.99 -719.46C410.99 -713.7 413.29 -711.61 419.7 -711.61L426.83 -711.61Z" />
				<path id="&lt;Compound Path&gt;" class="shp0" d="M452.96 -750.71L503.94 -750.71L502.72 -742.07C502.36 -739.55 501.06 -738.47 498.4 -738.47L486.37 -738.47L486.37 -699.95L470.53 -699.95L470.53 -738.47L458.51 -738.47C455.84 -738.47 454.55 -739.55 454.19 -742.07L452.96 -750.71Z" />
			</g>
			<path id="&lt;Compound Path&gt;" fill-rule="evenodd" class="shp3" d="M232.64 -1030.62L250.78 -1005.39L204.44 -925.45L171.45 -925.64L232.64 -1030.62ZM426.58 -925.64L393.5 -925.81L347.72 -1005.14L365.73 -1030.62L426.58 -925.64ZM238.75 -784.63L257.59 -813.64L342.13 -813.64L360.33 -784.78L238.75 -784.63ZM359.42 -1037.09L338.64 -1008.01L259.81 -1007.92L238.92 -1037.17L359.42 -1037.09ZM271.68 -947.11L237.88 -964.42L257.84 -999.04L340.87 -999.04L360.78 -964.56L326.59 -947.14L317.93 -907.5L299.18 -902.1L280.56 -907.28L271.68 -947.11ZM294.28 -872.91L249.6 -842.58L212.75 -920.83L233.07 -956.07L263.88 -940.53L273.08 -899.61L294.3 -894.03L294.28 -872.91ZM304.03 -894.03L325.51 -899.68L334.71 -941.53L365.18 -956.57L386.38 -920.13L349.82 -842.23L304.05 -872.91L304.03 -894.03ZM299.11 -865.22L345.91 -834.07L340.54 -822.54L259.12 -822.54L253.52 -834.02L299.11 -865.22ZM250.77 -818.9L230.68 -787.46L170.21 -916.24L205.08 -916.24L250.77 -818.9ZM394.68 -916.62L429.56 -916.62L368.6 -787.61L348.69 -818.91L394.68 -916.62Z" />
		</g>
		<g id="Colour mrk up 1 ">
			<path id="&lt;Path&gt;" class="shp3" d="M-28.87 -1064.09L-86.42 -1064.09L-86.42 -1121.64L-28.87 -1121.64L-28.87 -1064.09Z" />
			<path id="&lt;Path&gt;" class="shp4" d="M-28.87 -999.04L-86.42 -999.04L-86.42 -1056.59L-28.87 -1056.59L-28.87 -999.04Z" />
			<path id="&lt;Path&gt;" class="shp0" d="M-28.87 -933.98L-86.42 -933.98L-86.42 -991.54L-28.87 -991.54L-28.87 -933.98Z" />
			<text id="63c
05y
" style="transform: matrix(1,0,0,1,-17.703,-1109.906)" >
				<tspan x="0" y="17" class="txt5">63c</tspan>
				<tspan x="0" y="36.04" class="txt5">05y</tspan>
			</text>
			<text id="100k
" style="transform: matrix(1,0,0,1,-17.702,-967.177)" >
				<tspan x="0" y="17" class="txt5">100k</tspan>
			</text>
			<text id="66r
192g
236b
" style="transform: matrix(1,0,0,1,-17.703,-1057.442)" >
				<tspan x="0" y="17" class="txt5">66r</tspan>
				<tspan x="0" y="36.04" class="txt5">192g</tspan>
				<tspan x="0" y="55.08" class="txt5">236b</tspan>
			</text>
		</g>
		<path id="&lt;Path&gt;" class="shp2" d="M-115 -1064.09L38.72 -1064.09" />
		<path id="&lt;Path&gt;" class="shp2" d="M-115 -999.04L38.72 -999.04" />
		<path id="&lt;Path&gt;" class="shp2" d="M-115 -933.98L38.72 -933.98" />
		<path id="&lt;Path&gt;" class="shp2" d="M-115 -899.33L38.72 -899.33" />
		<text id="Font: Neusharp Black
" style="transform: matrix(1,0,0,1,-102.979,-918.324)" >
			<tspan x="0" y="12" class="txt6">Font: Neusharp Black</tspan>
		</text>
		<g id="&lt;Group&gt;">
			<path id="&lt;Compound Path&gt;" class="shp7" d="M226.9 113.71L198.46 113.71C190.47 113.71 186.22 109.39 186.22 101.39L186.22 62.94L202.06 62.94L202.06 98.73C202.06 100.6 202.93 101.46 204.8 101.46L221.36 101.46C224.02 101.46 225.32 102.54 225.68 105.06L226.9 113.71Z" />
			<path id="&lt;Compound Path&gt;" class="shp7" d="M246.48 113.71L230.64 113.71L230.64 62.94L246.48 62.94L246.48 113.71Z" />
			<path id="&lt;Compound Path&gt;" fill-rule="evenodd" class="shp7" d="M275.72 114.43C259.66 114.43 252.24 107.94 252.24 93.98L252.24 82.67C252.24 68.7 259.66 62.22 275.72 62.22L285 62.22C301.06 62.22 308.48 68.7 308.48 82.67L308.48 93.98C308.48 107.94 301.06 114.43 285 114.43L275.72 114.43ZM283.92 102.04C290.33 102.04 292.64 99.95 292.64 94.19L292.64 82.46C292.64 76.69 290.33 74.61 283.92 74.61L276.8 74.61C270.39 74.61 268.08 76.69 268.08 82.46L268.08 94.19C268.08 99.95 270.39 102.04 276.8 102.04L283.92 102.04Z" />
			<path id="&lt;Compound Path&gt;" class="shp7" d="M314.23 113.71L314.23 62.94L328.56 62.94C334.18 62.94 337.35 64.02 339.15 68.27L351.46 97.79C351.75 98.44 351.96 98.58 352.61 98.58L352.97 98.58L351.17 83.54L351.17 62.94L366.73 62.94L366.73 113.71L352.4 113.71C346.78 113.71 343.61 112.63 341.81 108.38L329.5 78.85C329.21 78.21 329 78.06 328.35 78.06L327.99 78.06L329.79 93.11L329.79 113.71L314.23 113.71Z" />
			<path id="&lt;Compound Path&gt;" class="shp7" d="M391.13 75.18C389.98 75.18 389.33 75.83 389.33 76.98L389.33 77.49C389.33 78.49 389.84 79 391.13 79.29L408.56 83.03C419.29 85.34 422.81 88.79 422.81 97.07L422.81 100.38C422.81 108.81 416.55 113.71 405.82 113.71L372.12 113.71L373.35 105.06C373.71 102.54 375 101.46 377.67 101.46L404.81 101.46C406.18 101.46 406.97 100.82 406.97 99.45L406.97 98.37C406.97 97.14 406.4 96.57 404.81 96.21L388.47 92.68C377.67 90.38 373.49 86.27 373.49 78.06L373.49 76.33C373.49 67.91 379.75 62.94 390.48 62.94L421.16 62.94L419.93 71.58C419.57 74.1 418.28 75.18 415.61 75.18L391.13 75.18Z" />
			<path id="&lt;Compound Path&gt;" fill-rule="evenodd" class="shp7" d="M460.68 62.94C471.34 62.94 477.17 67.55 477.17 76.05L477.17 77.49C477.17 81.45 474.73 84.9 470.84 86.13L470.84 86.85C476.38 88 479.26 91.82 479.26 97.58L479.26 99.74C479.26 106.86 474.8 113.71 460.97 113.71L428.21 113.71L428.21 62.94L460.68 62.94ZM444.05 82.1L458.88 82.1C460.9 82.1 462.05 80.94 462.05 78.93L462.05 78.35C462.05 76.33 460.9 75.18 458.88 75.18L444.05 75.18L444.05 82.1ZM459.68 101.46C462.41 101.46 463.42 100.17 463.42 98.08L463.42 96.86C463.42 94.77 462.41 93.47 459.68 93.47L444.05 93.47L444.05 101.46L459.68 101.46Z" />
			<path id="&lt;Compound Path&gt;" fill-rule="evenodd" class="shp7" d="M506.76 114.43C490.71 114.43 483.29 107.94 483.29 93.98L483.29 82.67C483.29 68.7 490.71 62.22 506.76 62.22L516.05 62.22C532.11 62.22 539.53 68.7 539.53 82.67L539.53 93.98C539.53 107.94 532.11 114.43 516.05 114.43L506.76 114.43ZM514.97 102.04C521.38 102.04 523.68 99.95 523.68 94.19L523.68 82.46C523.68 76.69 521.38 74.61 514.97 74.61L507.84 74.61C501.43 74.61 499.13 76.69 499.13 82.46L499.13 94.19C499.13 99.95 501.43 102.04 507.84 102.04L514.97 102.04Z" />
			<path id="&lt;Compound Path&gt;" class="shp7" d="M541.1 62.94L592.08 62.94L590.86 71.58C590.5 74.1 589.2 75.18 586.54 75.18L574.51 75.18L574.51 113.71L558.67 113.71L558.67 75.18L546.65 75.18C543.98 75.18 542.69 74.1 542.33 71.58L541.1 62.94Z" />
		</g>
		<path id="&lt;Compound Path&gt;" fill-rule="evenodd" class="shp3" d="M55.11 17.55L65.37 31.82L39.16 77.02L20.51 76.92L55.11 17.55ZM164.78 76.92L146.07 76.82L120.18 31.96L130.37 17.55L164.78 76.92ZM58.56 156.65L69.22 140.25L117.02 140.25L127.31 156.57L58.56 156.65ZM126.8 13.89L115.05 30.34L70.47 30.39L58.66 13.85L126.8 13.89ZM77.19 64.78L58.07 54.99L69.36 35.41L116.31 35.41L127.57 54.91L108.23 64.76L103.34 87.17L92.73 90.23L82.21 87.3L77.19 64.78ZM89.97 106.73L64.7 123.88L43.86 79.64L55.35 59.71L72.78 68.5L77.98 91.64L89.98 94.79L89.97 106.73ZM95.48 94.79L107.62 91.6L112.83 67.93L130.06 59.43L142.04 80.03L121.37 124.08L95.49 106.73L95.48 94.79ZM92.7 111.08L119.16 128.7L116.12 135.21L70.08 135.21L66.92 128.72L92.7 111.08ZM65.36 137.27L54 155.05L19.81 82.23L39.53 82.23L65.36 137.27ZM146.74 82.02L166.46 82.02L131.99 154.97L120.73 137.27L146.74 82.02Z" />
	</g>
</svg>