<?xml version="1.0" encoding="utf-8"?>
<!-- Generator: Adobe Illustrator 26.0.3, SVG Export Plug-In . SVG Version: 6.00 Build 0)  -->
<svg version="1.1" id="Livello_1" xmlns="http://www.w3.org/2000/svg" xmlns:xlink="http://www.w3.org/1999/xlink" x="0px" y="0px"
	 viewBox="0 0 1146.44 400" style="enable-background:new 0 0 1146.44 400;" xml:space="preserve">
<style type="text/css">
	.st0{fill:#313232;}
	.st1{fill:url(#SVGID_1_);}
	.st2{fill:url(#SVGID_00000117663568477091459050000013962702963068332422_);}
</style>
<g>
	<path class="st0" d="M456.99,256.47v14.04h-81.96V157.57h79.7v14.04h-63.57v34.69h56.63v13.71h-56.63v36.46H456.99z"/>
	<path class="st0" d="M551.05,185l-37.43,85.51h-15.81L460.38,185h16.13l29.36,68.57L535.88,185H551.05z"/>
	<path class="st0" d="M636.07,232.92H566.7c0.97,7.53,4.28,13.58,9.92,18.15c5.65,4.57,12.66,6.86,21.05,6.86
		c10.22,0,18.45-3.44,24.68-10.33l8.55,10c-3.87,4.52-8.69,7.96-14.44,10.33c-5.75,2.37-12.18,3.55-19.28,3.55
		c-9.03,0-17.05-1.86-24.04-5.57c-6.99-3.71-12.4-8.9-16.21-15.57c-3.82-6.67-5.73-14.2-5.73-22.59c0-8.28,1.86-15.76,5.57-22.43
		c3.71-6.67,8.82-11.86,15.33-15.57c6.51-3.71,13.85-5.57,22.02-5.57c8.17,0,15.46,1.86,21.86,5.57c6.4,3.71,11.4,8.9,15,15.57
		c3.6,6.67,5.4,14.31,5.4,22.91C636.4,229.42,636.29,230.98,636.07,232.92z M575.49,204.04c-5,4.52-7.93,10.43-8.79,17.75h54.85
		c-0.86-7.2-3.79-13.09-8.79-17.67c-5-4.57-11.21-6.86-18.63-6.86C586.71,197.26,580.49,199.52,575.49,204.04z"/>
	<path class="st0" d="M680.6,188.07c5.27-2.58,11.67-3.87,19.2-3.87v15c-0.86-0.11-2.04-0.16-3.55-0.16c-8.39,0-14.98,2.5-19.76,7.5
		c-4.79,5-7.18,12.13-7.18,21.38v42.59h-15.49V185h14.84v14.36C671.35,194.41,675.33,190.65,680.6,188.07z"/>
	<path class="st0" d="M766.43,265.51c-2.26,1.94-5.06,3.42-8.39,4.44c-3.34,1.02-6.78,1.53-10.33,1.53
		c-8.61,0-15.27-2.31-20.01-6.94c-4.73-4.62-7.1-11.24-7.1-19.84v-46.95h-14.52V185h14.52v-18.72h15.49V185h24.52v12.75H736.1v46.3
		c0,4.63,1.15,8.18,3.47,10.65c2.31,2.48,5.62,3.71,9.92,3.71c4.73,0,8.77-1.34,12.1-4.03L766.43,265.51z"/>
	<path class="st0" d="M807.89,188.07c5.27-2.58,11.67-3.87,19.2-3.87v15c-0.86-0.11-2.04-0.16-3.55-0.16
		c-8.39,0-14.98,2.5-19.76,7.5c-4.79,5-7.18,12.13-7.18,21.38v42.59h-15.49V185h14.84v14.36
		C798.64,194.41,802.62,190.65,807.89,188.07z"/>
	<path class="st0" d="M918.24,232.92h-69.37c0.97,7.53,4.28,13.58,9.92,18.15c5.65,4.57,12.66,6.86,21.05,6.86
		c10.22,0,18.45-3.44,24.68-10.33l8.55,10c-3.87,4.52-8.69,7.96-14.44,10.33c-5.75,2.37-12.18,3.55-19.28,3.55
		c-9.03,0-17.05-1.86-24.04-5.57c-6.99-3.71-12.4-8.9-16.21-15.57c-3.82-6.67-5.73-14.2-5.73-22.59c0-8.28,1.86-15.76,5.57-22.43
		c3.71-6.67,8.82-11.86,15.33-15.57c6.51-3.71,13.85-5.57,22.02-5.57c8.17,0,15.46,1.86,21.86,5.57c6.4,3.71,11.4,8.9,15,15.57
		c3.6,6.67,5.4,14.31,5.4,22.91C918.57,229.42,918.46,230.98,918.24,232.92z M857.66,204.04c-5,4.52-7.93,10.43-8.79,17.75h54.85
		c-0.86-7.2-3.79-13.09-8.79-17.67c-5-4.57-11.21-6.86-18.63-6.86C868.88,197.26,862.66,199.52,857.66,204.04z"/>
	<path class="st0" d="M1012.95,232.92h-69.37c0.97,7.53,4.28,13.58,9.92,18.15c5.65,4.57,12.66,6.86,21.05,6.86
		c10.22,0,18.45-3.44,24.68-10.33l8.55,10c-3.87,4.52-8.69,7.96-14.44,10.33c-5.76,2.37-12.18,3.55-19.28,3.55
		c-9.03,0-17.05-1.86-24.04-5.57c-6.99-3.71-12.4-8.9-16.21-15.57c-3.82-6.67-5.73-14.2-5.73-22.59c0-8.28,1.86-15.76,5.57-22.43
		c3.71-6.67,8.82-11.86,15.33-15.57c6.51-3.71,13.85-5.57,22.02-5.57c8.17,0,15.46,1.86,21.86,5.57c6.4,3.71,11.4,8.9,15,15.57
		c3.6,6.67,5.4,14.31,5.4,22.91C1013.27,229.42,1013.16,230.98,1012.95,232.92z M952.37,204.04c-5,4.52-7.93,10.43-8.79,17.75h54.85
		c-0.86-7.2-3.79-13.09-8.79-17.67c-5-4.57-11.21-6.86-18.63-6.86C963.58,197.26,957.37,199.52,952.37,204.04z"/>
	<path class="st0" d="M1102.25,193.63c6.4,6.29,9.6,15.52,9.6,27.67v49.21h-15.49v-47.43c0-8.28-1.99-14.52-5.97-18.72
		c-3.98-4.19-9.68-6.29-17.1-6.29c-8.39,0-15,2.45-19.84,7.34c-4.84,4.9-7.26,11.91-7.26,21.05v44.04h-15.49V185h14.84v12.91
		c3.12-4.41,7.34-7.8,12.67-10.16c5.32-2.36,11.37-3.55,18.15-3.55C1087.22,184.19,1095.85,187.34,1102.25,193.63z"/>
</g>
<linearGradient id="SVGID_1_" gradientUnits="userSpaceOnUse" x1="181.9714" y1="199.1557" x2="337.2795" y2="199.1557">
	<stop  offset="0" style="stop-color:#9FE31A"/>
	<stop  offset="1" style="stop-color:#689F38"/>
</linearGradient>
<path class="st1" d="M335.01,110.71c-179.89-0.63-151.39,171.65-151.39,171.65S216.88,196.22,297,160.44
	c0,0-64.29,35.47-105.15,127.16c0,0,148.69,3.33,145.37-160.1l0.05-16.79L335.01,110.71z"/>
<linearGradient id="SVGID_00000000194175057319175250000012449122611604914328_" gradientUnits="userSpaceOnUse" x1="90.2349" y1="216.7312" x2="184.7305" y2="216.7312">
	<stop  offset="0" style="stop-color:#367C2C"/>
	<stop  offset="1" style="stop-color:#65BC6A"/>
</linearGradient>
<path style="fill:url(#SVGID_00000000194175057319175250000012449122611604914328_);" d="M110.78,143.02
	c0,0-75.69,116.07,63.5,147.43c0,0-47.51-38.95-52.26-85.99c0,0,24.7,57.19,55.58,78.86c0,0-5.23-53.21,7.13-87.89
	C184.73,195.43,163.19,155.69,110.78,143.02z"/>
</svg>
